<svg width="120" height="120" viewBox="0 0 120 120" fill="none" xmlns="http://www.w3.org/2000/svg">
<mask id="mask0_63_68" style="mask-type:alpha" maskUnits="userSpaceOnUse" x="0" y="0" width="120" height="120">
<rect width="120" height="120" fill="#D9D9D9"/>
</mask>
<g mask="url(#mask0_63_68)">
<path d="M81.75 80.8752L99.5 63.1252C100.5 62.1252 101.667 61.646 103 61.6877C104.333 61.7293 105.5 62.2502 106.5 63.2502C107.417 64.2502 107.875 65.4168 107.875 66.7502C107.875 68.0835 107.417 69.2502 106.5 70.2502L85.375 91.5002C84.375 92.5002 83.2083 93.0002 81.875 93.0002C80.5417 93.0002 79.375 92.5002 78.375 91.5002L67.625 80.7502C66.7083 79.8335 66.25 78.6668 66.25 77.2502C66.25 75.8335 66.7083 74.6669 67.625 73.7502C68.5417 72.8335 69.7083 72.3752 71.125 72.3752C72.5417 72.3752 73.7083 72.8335 74.625 73.7502L81.75 80.8752ZM81.75 40.8752L99.5 23.1252C100.5 22.1252 101.667 21.646 103 21.6877C104.333 21.7293 105.5 22.2502 106.5 23.2502C107.417 24.2502 107.875 25.4168 107.875 26.7502C107.875 28.0835 107.417 29.2502 106.5 30.2502L85.375 51.5002C84.375 52.5002 83.2083 53.0002 81.875 53.0002C80.5417 53.0002 79.375 52.5002 78.375 51.5002L67.625 40.7502C66.7083 39.8335 66.25 38.6668 66.25 37.2502C66.25 35.8335 66.7083 34.6668 67.625 33.7502C68.5417 32.8335 69.7083 32.3752 71.125 32.3752C72.5417 32.3752 73.7083 32.8335 74.625 33.7502L81.75 40.8752ZM15 85.0002C13.5833 85.0002 12.3958 84.521 11.4375 83.5627C10.4792 82.6043 10 81.4169 10 80.0002C10 78.5835 10.4792 77.396 11.4375 76.4377C12.3958 75.4793 13.5833 75.0002 15 75.0002H50C51.4167 75.0002 52.6042 75.4793 53.5625 76.4377C54.5208 77.396 55 78.5835 55 80.0002C55 81.4169 54.5208 82.6043 53.5625 83.5627C52.6042 84.521 51.4167 85.0002 50 85.0002H15ZM15 45.0002C13.5833 45.0002 12.3958 44.521 11.4375 43.5627C10.4792 42.6043 10 41.4168 10 40.0002C10 38.5835 10.4792 37.396 11.4375 36.4377C12.3958 35.4793 13.5833 35.0002 15 35.0002H50C51.4167 35.0002 52.6042 35.4793 53.5625 36.4377C54.5208 37.396 55 38.5835 55 40.0002C55 41.4168 54.5208 42.6043 53.5625 43.5627C52.6042 44.521 51.4167 45.0002 50 45.0002H15Z" fill="#1C1B1F"/>
</g>
</svg>
