<svg width="120" height="120" viewBox="0 0 120 120" fill="none" xmlns="http://www.w3.org/2000/svg">
<mask id="mask0_26_2" style="mask-type:alpha" maskUnits="userSpaceOnUse" x="0" y="0" width="120" height="120">
<rect y="3.05176e-05" width="120" height="120" fill="#D9D9D9"/>
</mask>
<g mask="url(#mask0_26_2)">
<path d="M60.0002 110C48.5836 110 39.0627 106.083 31.4377 98.2501C23.8127 90.4167 20.0002 80.6668 20.0002 69.0001C20.0002 63.8334 21.1669 58.6668 23.5002 53.5001C25.8336 48.3334 28.7502 43.3751 32.2502 38.6251C35.7502 33.8751 39.5419 29.4168 43.6252 25.2501C47.7086 21.0834 51.5002 17.4584 55.0002 14.3751C55.6669 13.7084 56.4377 13.2293 57.3127 12.9376C58.1877 12.6459 59.0836 12.5001 60.0002 12.5001C60.9169 12.5001 61.8127 12.6459 62.6877 12.9376C63.5627 13.2293 64.3336 13.7084 65.0002 14.3751C68.5002 17.4584 72.2919 21.0834 76.3752 25.2501C80.4586 29.4168 84.2502 33.8751 87.7502 38.6251C91.2502 43.3751 94.1669 48.3334 96.5002 53.5001C98.8336 58.6668 100 63.8334 100 69.0001C100 80.6668 96.1877 90.4167 88.5627 98.2501C80.9377 106.083 71.4169 110 60.0002 110ZM60.0002 100C68.6669 100 75.8336 97.0626 81.5002 91.1876C87.1669 85.3126 90.0002 77.9168 90.0002 69.0001C90.0002 62.9168 87.4794 56.0418 82.4377 48.3751C77.3961 40.7084 69.9169 32.3334 60.0002 23.2501C50.0836 32.3334 42.6044 40.7084 37.5627 48.3751C32.5211 56.0418 30.0002 62.9168 30.0002 69.0001C30.0002 77.9168 32.8336 85.3126 38.5002 91.1876C44.1669 97.0626 51.3336 100 60.0002 100ZM61.3752 95.0001C62.3752 94.9167 63.2294 94.5209 63.9377 93.8126C64.6461 93.1043 65.0002 92.2501 65.0002 91.2501C65.0002 90.0834 64.6252 89.1459 63.8752 88.4376C63.1252 87.7292 62.1669 87.4167 61.0002 87.5001C57.5836 87.7501 53.9586 86.8126 50.1252 84.6876C46.2919 82.5626 43.8752 78.7084 42.8752 73.1251C42.7086 72.2084 42.2711 71.4584 41.5627 70.8751C40.8544 70.2918 40.0419 70.0001 39.1252 70.0001C37.9586 70.0001 37.0002 70.4376 36.2502 71.3126C35.5002 72.1876 35.2502 73.2084 35.5002 74.3751C36.9169 81.9584 40.2502 87.3751 45.5002 90.6251C50.7502 93.8751 56.0419 95.3334 61.3752 95.0001Z" fill="#0674DA"/>
</g>
</svg>
