<svg width="120" height="120" viewBox="0 0 120 120" fill="none" xmlns="http://www.w3.org/2000/svg">
<mask id="mask0_26_10" style="mask-type:alpha" maskUnits="userSpaceOnUse" x="0" y="0" width="120" height="120">
<rect width="120" height="120" fill="#D9D9D9"/>
</mask>
<g mask="url(#mask0_26_10)">
<path d="M36.3304 87.2222H82.9555L77.4188 48.3333H41.8672L36.3304 87.2222ZM59.643 40.5556C60.7438 40.5556 61.6666 40.1829 62.4113 39.4375C63.156 38.6921 63.5284 37.7685 63.5284 36.6667C63.5284 35.5648 63.156 34.6412 62.4113 33.8958C61.6666 33.1505 60.7438 32.7778 59.643 32.7778C58.5421 32.7778 57.6193 33.1505 56.8746 33.8958C56.1299 34.6412 55.7575 35.5648 55.7575 36.6667C55.7575 37.7685 56.1299 38.6921 56.8746 39.4375C57.6193 40.1829 58.5421 40.5556 59.643 40.5556ZM70.6193 40.5556H77.4188C79.3615 40.5556 81.0451 41.2037 82.4698 42.5C83.8945 43.7963 84.7687 45.3843 85.0925 47.2639L90.6292 86.1528C90.953 88.4861 90.354 90.544 88.8322 92.3264C87.3104 94.1088 85.3515 95 82.9555 95H36.3304C33.9344 95 31.9755 94.1088 30.4537 92.3264C28.932 90.544 28.333 88.4861 28.6567 86.1528L34.1935 47.2639C34.5172 45.3843 35.3915 43.7963 36.8161 42.5C38.2408 41.2037 39.9245 40.5556 41.8672 40.5556H48.6667C48.4724 39.9074 48.3105 39.2755 48.181 38.6597C48.0515 38.044 47.9867 37.3796 47.9867 36.6667C47.9867 33.4259 49.12 30.6713 51.3864 28.4028C53.6529 26.1343 56.4051 25 59.643 25C62.8808 25 65.633 26.1343 67.8995 28.4028C70.166 30.6713 71.2992 33.4259 71.2992 36.6667C71.2992 37.3796 71.2345 38.044 71.1049 38.6597C70.9754 39.2755 70.8135 39.9074 70.6193 40.5556Z" fill="#322F38"/>
</g>
</svg>
