<svg width="34" height="34" viewBox="0 0 34 34" fill="none" xmlns="http://www.w3.org/2000/svg">
<mask id="mask0_25_24" style="mask-type:alpha" maskUnits="userSpaceOnUse" x="0" y="0" width="34" height="34">
<rect width="34" height="34" fill="#D9D9D9"/>
</mask>
<g mask="url(#mask0_25_24)">
<path d="M7.86249 14.875C7.57916 14.7569 7.31353 14.633 7.06562 14.5031C6.8177 14.3733 6.56388 14.2139 6.30416 14.025L5.27708 14.3437C4.97013 14.4382 4.66909 14.4264 4.37395 14.3083C4.07881 14.1903 3.8486 14.0014 3.68333 13.7417L3.39999 13.2458C3.23471 12.9625 3.17569 12.6556 3.22291 12.325C3.27013 11.9944 3.4236 11.7229 3.68333 11.5104L4.46249 10.8375C4.41527 10.5306 4.39166 10.2236 4.39166 9.91667C4.39166 9.60972 4.41527 9.30278 4.46249 8.99583L3.68333 8.32292C3.4236 8.11042 3.27013 7.84479 3.22291 7.52604C3.17569 7.20729 3.23471 6.90625 3.39999 6.62292L3.71874 6.09167C3.88402 5.83194 4.10833 5.64305 4.39166 5.525C4.67499 5.40694 4.97013 5.39514 5.27708 5.48958L6.30416 5.80833C6.56388 5.61944 6.8177 5.46007 7.06562 5.33021C7.31353 5.20035 7.57916 5.07639 7.86249 4.95833L8.07499 3.93125C8.14583 3.60069 8.3052 3.33507 8.55312 3.13437C8.80103 2.93368 9.09027 2.83333 9.42083 2.83333H9.98749C10.318 2.83333 10.6073 2.93958 10.8552 3.15208C11.1031 3.36458 11.2625 3.63611 11.3333 3.96667L11.5458 4.95833C11.8292 5.07639 12.0948 5.20035 12.3427 5.33021C12.5906 5.46007 12.8444 5.61944 13.1042 5.80833L14.1312 5.48958C14.4382 5.39514 14.7392 5.40694 15.0344 5.525C15.3295 5.64305 15.5597 5.83194 15.725 6.09167L16.0083 6.5875C16.1736 6.87083 16.2326 7.17778 16.1854 7.50833C16.1382 7.83889 15.9847 8.11042 15.725 8.32292L14.9458 8.99583C14.993 9.30278 15.0167 9.60972 15.0167 9.91667C15.0167 10.2236 14.993 10.5306 14.9458 10.8375L15.725 11.5104C15.9847 11.7229 16.1382 11.9885 16.1854 12.3073C16.2326 12.626 16.1736 12.9271 16.0083 13.2104L15.6896 13.7417C15.5243 14.0014 15.3 14.1903 15.0167 14.3083C14.7333 14.4264 14.4382 14.4382 14.1312 14.3437L13.1042 14.025C12.8444 14.2139 12.5906 14.3733 12.3427 14.5031C12.0948 14.633 11.8292 14.7569 11.5458 14.875L11.3333 15.9021C11.2625 16.2326 11.1031 16.4983 10.8552 16.699C10.6073 16.8997 10.318 17 9.98749 17H9.42083C9.09027 17 8.80103 16.8937 8.55312 16.6812C8.3052 16.4687 8.14583 16.1972 8.07499 15.8667L7.86249 14.875ZM9.70416 12.75C10.4833 12.75 11.1503 12.4726 11.7052 11.9177C12.2601 11.3628 12.5375 10.6958 12.5375 9.91667C12.5375 9.1375 12.2601 8.47048 11.7052 7.91562C11.1503 7.36076 10.4833 7.08333 9.70416 7.08333C8.92499 7.08333 8.25798 7.36076 7.70312 7.91562C7.14826 8.47048 6.87083 9.1375 6.87083 9.91667C6.87083 10.6958 7.14826 11.3628 7.70312 11.9177C8.25798 12.4726 8.92499 12.75 9.70416 12.75ZM20.3292 29.6083C19.9278 29.4667 19.5559 29.2955 19.2135 29.0948C18.8712 28.8941 18.5347 28.6639 18.2042 28.4042L16.8583 28.8292C16.4333 28.9708 16.0083 28.9649 15.5833 28.8115C15.1583 28.658 14.8278 28.3806 14.5917 27.9792L14.2021 27.3062C13.966 26.9049 13.8833 26.474 13.9542 26.0135C14.025 25.5531 14.2375 25.1694 14.5917 24.8625L15.6542 23.9417C15.6069 23.5167 15.5833 23.0917 15.5833 22.6667C15.5833 22.2417 15.6069 21.8167 15.6542 21.3917L14.5917 20.4354C14.2375 20.1285 14.025 19.7507 13.9542 19.3021C13.8833 18.8535 13.966 18.4285 14.2021 18.0271L14.5917 17.3542C14.8278 16.9528 15.1583 16.6753 15.5833 16.5219C16.0083 16.3684 16.4333 16.3625 16.8583 16.5042L18.2042 16.9292C18.5347 16.6694 18.8712 16.4392 19.2135 16.2385C19.5559 16.0378 19.9278 15.8667 20.3292 15.725L20.6479 14.2729C20.7424 13.8243 20.9608 13.4583 21.3031 13.175C21.6455 12.8917 22.0528 12.75 22.525 12.75H23.375C23.8472 12.75 24.2545 12.8917 24.5969 13.175C24.9392 13.4583 25.1576 13.8243 25.2521 14.2729L25.5708 15.725C25.9722 15.8667 26.3441 16.0378 26.6865 16.2385C27.0288 16.4392 27.3653 16.6694 27.6958 16.9292L29.0417 16.5042C29.4667 16.3625 29.8917 16.3684 30.3167 16.5219C30.7417 16.6753 31.0722 16.9528 31.3083 17.3542L31.6979 18.0271C31.934 18.4285 32.0167 18.8594 31.9458 19.3198C31.875 19.7802 31.6625 20.1639 31.3083 20.4708L30.2458 21.3917C30.293 21.8167 30.3167 22.2417 30.3167 22.6667C30.3167 23.0917 30.293 23.5167 30.2458 23.9417L31.3083 24.8979C31.6625 25.2049 31.875 25.5826 31.9458 26.0312C32.0167 26.4799 31.934 26.9049 31.6979 27.3062L31.3083 27.9792C31.0722 28.3806 30.7417 28.658 30.3167 28.8115C29.8917 28.9649 29.4667 28.9708 29.0417 28.8292L27.6958 28.4042C27.3653 28.6639 27.0288 28.8941 26.6865 29.0948C26.3441 29.2955 25.9722 29.4667 25.5708 29.6083L25.2521 31.0604C25.1576 31.509 24.9392 31.875 24.5969 32.1583C24.2545 32.4417 23.8472 32.5833 23.375 32.5833H22.525C22.0528 32.5833 21.6455 32.4417 21.3031 32.1583C20.9608 31.875 20.7424 31.509 20.6479 31.0604L20.3292 29.6083ZM22.95 26.9167C24.1306 26.9167 25.134 26.5035 25.9604 25.6771C26.7868 24.8507 27.2 23.8472 27.2 22.6667C27.2 21.4861 26.7868 20.4826 25.9604 19.6562C25.134 18.8299 24.1306 18.4167 22.95 18.4167C21.7694 18.4167 20.766 18.8299 19.9396 19.6562C19.1132 20.4826 18.7 21.4861 18.7 22.6667C18.7 23.8472 19.1132 24.8507 19.9396 25.6771C20.766 26.5035 21.7694 26.9167 22.95 26.9167Z" fill="#1C1B1F"/>
</g>
</svg>
