<svg width="34" height="34" viewBox="0 0 34 34" fill="none" xmlns="http://www.w3.org/2000/svg">
<mask id="mask0_7_75" style="mask-type:alpha" maskUnits="userSpaceOnUse" x="0" y="0" width="34" height="34">
<rect width="34" height="34" fill="#D9D9D9"/>
</mask>
<g mask="url(#mask0_7_75)">
<path d="M5.66667 9.91671C5.26528 9.91671 4.92882 9.78094 4.65729 9.50942C4.38576 9.23789 4.25 8.90143 4.25 8.50004C4.25 8.09865 4.38576 7.76219 4.65729 7.49067C4.92882 7.21914 5.26528 7.08337 5.66667 7.08337H28.3333C28.7347 7.08337 29.0712 7.21914 29.3427 7.49067C29.6142 7.76219 29.75 8.09865 29.75 8.50004C29.75 8.90143 29.6142 9.23789 29.3427 9.50942C29.0712 9.78094 28.7347 9.91671 28.3333 9.91671H5.66667ZM5.66667 26.9167C5.26528 26.9167 4.92882 26.7809 4.65729 26.5094C4.38576 26.2379 4.25 25.9014 4.25 25.5C4.25 25.0987 4.38576 24.7622 4.65729 24.4907C4.92882 24.2191 5.26528 24.0834 5.66667 24.0834H28.3333C28.7347 24.0834 29.0712 24.2191 29.3427 24.4907C29.6142 24.7622 29.75 25.0987 29.75 25.5C29.75 25.9014 29.6142 26.2379 29.3427 26.5094C29.0712 26.7809 28.7347 26.9167 28.3333 26.9167H5.66667ZM5.66667 18.4167C5.26528 18.4167 4.92882 18.2809 4.65729 18.0094C4.38576 17.7379 4.25 17.4014 4.25 17C4.25 16.5987 4.38576 16.2622 4.65729 15.9907C4.92882 15.7191 5.26528 15.5834 5.66667 15.5834H28.3333C28.7347 15.5834 29.0712 15.7191 29.3427 15.9907C29.6142 16.2622 29.75 16.5987 29.75 17C29.75 17.4014 29.6142 17.7379 29.3427 18.0094C29.0712 18.2809 28.7347 18.4167 28.3333 18.4167H5.66667Z" fill="#1C1B1F"/>
</g>
</svg>
