<svg width="34" height="34" viewBox="0 0 34 34" fill="none" xmlns="http://www.w3.org/2000/svg">
<mask id="mask0_35_62" style="mask-type:alpha" maskUnits="userSpaceOnUse" x="0" y="0" width="34" height="34">
<rect width="34" height="34" fill="#D9D9D9"/>
</mask>
<g mask="url(#mask0_35_62)">
<path d="M28.5458 18.4167H12.75C12.3486 18.4167 12.0122 18.2809 11.7406 18.0094C11.4691 17.7378 11.3333 17.4014 11.3333 17C11.3333 16.5986 11.4691 16.2622 11.7406 15.9906C12.0122 15.7191 12.3486 15.5833 12.75 15.5833H28.5458L27.3417 14.3792C27.0583 14.0958 26.9226 13.7653 26.9344 13.3875C26.9462 13.0097 27.0819 12.6792 27.3417 12.3958C27.625 12.1125 27.9615 11.9649 28.351 11.9531C28.7406 11.9413 29.0771 12.0771 29.3604 12.3604L33.0083 16.0083C33.2917 16.2917 33.4333 16.6222 33.4333 17C33.4333 17.3778 33.2917 17.7083 33.0083 17.9917L29.3604 21.6396C29.0771 21.9229 28.7406 22.0587 28.351 22.0469C27.9615 22.0351 27.625 21.8875 27.3417 21.6042C27.0819 21.3208 26.9462 20.9903 26.9344 20.6125C26.9226 20.2347 27.0583 19.9042 27.3417 19.6208L28.5458 18.4167ZM21.25 11.3333V7.08333H7.08333V26.9167H21.25V22.6667C21.25 22.2653 21.3858 21.9288 21.6573 21.6573C21.9288 21.3858 22.2653 21.25 22.6667 21.25C23.0681 21.25 23.4045 21.3858 23.676 21.6573C23.9476 21.9288 24.0833 22.2653 24.0833 22.6667V26.9167C24.0833 27.6958 23.8059 28.3628 23.251 28.9177C22.6962 29.4726 22.0292 29.75 21.25 29.75H7.08333C6.30417 29.75 5.63715 29.4726 5.08229 28.9177C4.52743 28.3628 4.25 27.6958 4.25 26.9167V7.08333C4.25 6.30417 4.52743 5.63715 5.08229 5.08229C5.63715 4.52743 6.30417 4.25 7.08333 4.25H21.25C22.0292 4.25 22.6962 4.52743 23.251 5.08229C23.8059 5.63715 24.0833 6.30417 24.0833 7.08333V11.3333C24.0833 11.7347 23.9476 12.0712 23.676 12.3427C23.4045 12.6142 23.0681 12.75 22.6667 12.75C22.2653 12.75 21.9288 12.6142 21.6573 12.3427C21.3858 12.0712 21.25 11.7347 21.25 11.3333Z" fill="#1C1B1F"/>
</g>
</svg>
