<svg width="120" height="120" viewBox="0 0 120 120" fill="none" xmlns="http://www.w3.org/2000/svg">
<mask id="mask0_26_6" style="mask-type:alpha" maskUnits="userSpaceOnUse" x="0" y="0" width="120" height="120">
<rect y="-3.05176e-05" width="120" height="120" fill="#D9D9D9"/>
</mask>
<g mask="url(#mask0_26_6)">
<path d="M60.0002 110C53.0836 110 47.1877 107.562 42.3127 102.687C37.4377 97.8125 35.0002 91.9166 35.0002 85C35.0002 81 35.8752 77.2708 37.6252 73.8125C39.3752 70.3541 41.8336 67.4166 45.0002 65V25C45.0002 20.8333 46.4586 17.2916 49.3752 14.375C52.2919 11.4583 55.8336 9.99997 60.0002 9.99997C64.1669 9.99997 67.7086 11.4583 70.6252 14.375C73.5419 17.2916 75.0002 20.8333 75.0002 25V65C78.1669 67.4166 80.6252 70.3541 82.3752 73.8125C84.1252 77.2708 85.0002 81 85.0002 85C85.0002 91.9166 82.5627 97.8125 77.6877 102.687C72.8127 107.562 66.9169 110 60.0002 110ZM55.0002 55H65.0002V50H60.0002V45H65.0002V35H60.0002V30H65.0002V25C65.0002 23.5833 64.5211 22.3958 63.5627 21.4375C62.6044 20.4791 61.4169 20 60.0002 20C58.5836 20 57.3961 20.4791 56.4377 21.4375C55.4794 22.3958 55.0002 23.5833 55.0002 25V55Z" fill="#C41717"/>
</g>
</svg>
