<svg width="46" height="46" viewBox="0 0 46 46" fill="none" xmlns="http://www.w3.org/2000/svg">
<mask id="mask0_82_105" style="mask-type:alpha" maskUnits="userSpaceOnUse" x="0" y="0" width="46" height="46">
<rect width="46" height="46" fill="#D9D9D9"/>
</mask>
<g mask="url(#mask0_82_105)">
<path d="M15.4292 36.4167H11.3563C10.6535 36.4167 10.0066 36.241 9.41563 35.8896C8.82466 35.5382 8.35348 35.0591 8.00209 34.4521L5.84584 30.6188C5.49445 30.0438 5.31876 29.4209 5.31876 28.75C5.31876 28.0792 5.49445 27.4563 5.84584 26.8813L8.05001 23L5.84584 19.1188C5.49445 18.5438 5.31876 17.9209 5.31876 17.25C5.31876 16.5792 5.49445 15.9563 5.84584 15.3813L8.00209 11.548C8.35348 10.941 8.82466 10.4618 9.41563 10.1105C10.0066 9.75907 10.6535 9.58337 11.3563 9.58337H15.4292L17.5854 5.79796C17.9368 5.19101 18.408 4.71185 18.999 4.36046C19.5899 4.00907 20.2368 3.83337 20.9396 3.83337H25.0604C25.7632 3.83337 26.4101 4.00907 27.001 4.36046C27.592 4.71185 28.0632 5.19101 28.4146 5.79796L30.5708 9.58337H34.6438C35.3465 9.58337 35.9934 9.75907 36.5844 10.1105C37.1754 10.4618 37.6465 10.941 37.9979 11.548L40.1542 15.3813C40.5056 15.9563 40.6813 16.5792 40.6813 17.25C40.6813 17.9209 40.5056 18.5438 40.1542 19.1188L37.95 23L40.1542 26.8813C40.5056 27.4563 40.6813 28.0792 40.6813 28.75C40.6813 29.4209 40.5056 30.0438 40.1542 30.6188L37.9979 34.4521C37.6465 35.0591 37.1754 35.5382 36.5844 35.8896C35.9934 36.241 35.3465 36.4167 34.6438 36.4167H30.5708L28.4146 40.2021C28.0632 40.8091 27.592 41.2882 27.001 41.6396C26.4101 41.991 25.7632 42.1667 25.0604 42.1667H20.9396C20.2368 42.1667 19.5899 41.991 18.999 41.6396C18.408 41.2882 17.9368 40.8091 17.5854 40.2021L15.4292 36.4167ZM30.5708 21.0834H34.6917L36.8 17.25L34.6917 13.4167H30.5708L28.4146 17.25L30.5708 21.0834ZM20.9875 26.8334H25.0125L27.1688 23L25.0125 19.1667H20.9875L18.8313 23L20.9875 26.8334ZM20.9875 15.3334H25.0125L27.2167 11.4521L25.0604 7.66671H20.9396L18.7833 11.4521L20.9875 15.3334ZM17.5854 17.25L15.4292 13.4167H11.3563L9.20001 17.25L11.3563 21.0834H15.4292L17.5854 17.25ZM17.5854 28.75L15.4292 24.9167H11.3083L9.20001 28.75L11.3563 32.5834H15.4292L17.5854 28.75ZM20.9875 30.6667L18.7833 34.548L20.9396 38.3334H25.0604L27.2167 34.548L25.0125 30.6667H20.9875ZM30.5708 32.5834H34.6438L36.8 28.75L34.6438 24.9167H30.5708L28.4146 28.75L30.5708 32.5834Z" fill="black"/>
</g>
</svg>
